<svg version="1.0" xmlns="http://www.w3.org/2000/svg" width="1706.667" height="1665.333" viewBox="0 0 1280 1249">
    <path
        d="M656 1.9c-11.9 3.8-25.5 12.5-58.7 37.4-22.6 16.9-30.7 21.8-42.3 25.5-11.6 3.7-18.2 4.6-33 4.5-23.6-.1-43.8-4.4-86.6-18.4-13.3-4.3-28.1-8.5-32.9-9.4-9.9-1.7-30.6-2-41-.5-31.3 4.5-57.6 21.5-68.9 44.4-7.2 14.7-8.3 25.8-4.6 48.2 6.2 38.1 23.5 64.9 46.5 71.8 12.3 3.7 20.3 2.9 64-6.5 67.8-14.7 78-16.2 107.5-16.3 23.6 0 30.6.8 48 5.5 13 3.5 25.6 12.8 34 25 4.3 6.3 7.7 8.9 11.5 8.9h2.5v86h-3.2c-4.8 0-17.7 6.9-32.8 17.6-34.7 24.6-38.1 26.5-52.2 30.3-14 3.7-24.5 4.5-41.2 3.2-14-1.1-15.9-.7-20.3 4.1-6.6 7.2-8.6 25.9-5.1 48.6 1 6.6 1.4 7.5 4.2 9 4.2 2.2 10.8 3.9 18.9 4.7l6.7.7v5.8c0 3.1-.5 11.5-1 18.6-1.6 19.7-1.9 18.9 12.2 32.5l12.1 11.7-1.7 50.3c-1.2 35.3-2.2 52.2-3.2 56.4-.8 3.3-3.5 10-5.9 14.8-10.6 21.2-26.4 37.9-55.8 59l-9.8 7-13.7.8c-13.8.9-26.1.1-34.4-2.1-5.2-1.5-10.1-4.8-19.8-13.5-13.3-11.9-20-15.6-31.3-17-4.6-.5-6.1-.3-7 .8-1 1.2-30.3 3.4-157.2 11.8-85.8 5.6-156.1 10.3-156.3 10.4-.2.2-.8 42.9-3.3 235.8-.6 47.8-.8 87.1-.6 87.4.3.2 8.8 1.3 18.9 2.3 18.3 1.9 248 25.3 284.8 29 10.7 1.1 21.4 2.2 23.8 2.5l4.2.6v-3.5c0-3.1.7-4.1 5.8-8.1 16.1-12.8 28.8-19.1 48.7-24.3 18.5-4.8 30.4-6.5 46.5-6.6 13 0 15.9.3 28.5 3.3 48.1 11.3 130.8 28.8 141.7 30 29 3.2 64.8-.3 125.8-12.4 68.6-13.6 120.9-22.1 160.3-26 22.9-2.3 48-1.7 59.2 1.4 35 9.8 53.6 32.2 60.9 73.7.9 4.9 2.5 16.1 3.6 24.9 1.1 8.8 2.7 19.8 3.5 24.5 2.2 12.3 2.8 34.8 1.7 64.5-1.4 39.4 0 53.8 5.7 58.9 2.6 2.3 20.4 7.7 36.2 11 64.6 13.2 126.7 6.2 200.7-22.6 18.7-7.3 18.3-6.7 19-25.3 1.3-34.2-7.2-137.6-16.4-200-6.5-44-14.5-73.9-28.3-105.8-10.8-25.1-20.7-40.4-35.6-55.2-62.4-61.9-170.4-108.4-301.9-130-12.8-2.1-20.4-4.6-29-9.7-15.2-9-26.8-25.2-34.5-48.3-7.7-23.2-7.6-22.3-7.6-76.4l-.1-48.4 15.1-13.2c8.2-7.2 15.5-13.8 16.1-14.6 1.8-2.2 3.5-15 4.2-32.4l.7-15.9 7.7-1.1c12.1-1.7 14.8-4.5 16.9-17.6 2.1-13.7-.6-41.1-4.7-47.6-3.3-5.3-11-6.6-32-5.3l-13.9.9-20.6-6.9c-33.6-11.2-42-16.3-59.3-36.4-10-11.6-19.8-20.6-22.4-20.6-.9 0-1.2-11.3-1.2-44v-44h3c4.2 0 7.2-2.2 11.3-8.3 8.5-12.9 20.6-21.9 34.6-25.7 16.2-4.5 24.8-5.5 48.1-5.4 29.9.1 38.7 1.5 110 16.8 35.5 7.6 46.1 9.1 54.1 7.7 28.3-4.9 48-32.9 54.4-77.2 2.8-19.7 1.7-29.5-4.9-43.4-10.1-21.4-29.2-35.6-57.6-43.1-7.6-2-12.8-2.7-26-3.1-21.4-.7-28.3.5-58.2 10.3-26.8 8.6-48.9 14.6-63.3 17-12.1 2-36.6 2.3-45 .5C773.8 64 766 59.8 736 37.5c-27.7-20.6-37.5-27.2-47.5-32-12-5.8-22.2-6.9-32.5-3.6z"
        fill="#000000" stroke="#f5f5f5" stroke-width="1" />
</svg>